<svg xmlns="http://www.w3.org/2000/svg" width="350" height="220" viewBox="0 0 350 220" role="img" aria-labelledby="title"><title id="title">Lenguajes principales de 34 repositorios públicos sin forks de Edwinfpirajan</title><rect x="0.5" y="0.5" width="349" height="219" rx="14" fill="#0D1117" stroke="#30363D"/><g font-family="Arial, Helvetica, sans-serif"><text x="22" y="29" font-size="17" fill="#C4B5FD" font-weight="700">Lenguajes en mis repos</text><text x="22" y="49" font-size="10" fill="#8B98AA" >Lenguaje principal por repositorio · sin forks</text><rect x="22.000" y="66" width="90.000" height="8" fill="#00ADD8"/><rect x="112.000" y="66" width="63.000" height="8" fill="#F7DF1E"/><rect x="175.000" y="66" width="63.000" height="8" fill="#3178C6"/><rect x="238.000" y="66" width="36.000" height="8" fill="#3776AB"/><rect x="274.000" y="66" width="27.000" height="8" fill="#A78BFA"/><rect x="301.000" y="66" width="27.000" height="8" fill="#64748B"/><circle cx="26" cy="101" r="4" fill="#00ADD8"/><text x="37" y="105" font-size="11" fill="#C9D1D9" >Go</text><text x="165" y="105" font-size="10" fill="#A8B2C3" text-anchor="end">29%</text><circle cx="188" cy="101" r="4" fill="#F7DF1E"/><text x="199" y="105" font-size="11" fill="#C9D1D9" >JavaScript</text><text x="327" y="105" font-size="10" fill="#A8B2C3" text-anchor="end">21%</text><circle cx="26" cy="135" r="4" fill="#3178C6"/><text x="37" y="139" font-size="11" fill="#C9D1D9" >TypeScript</text><text x="165" y="139" font-size="10" fill="#A8B2C3" text-anchor="end">21%</text><circle cx="188" cy="135" r="4" fill="#3776AB"/><text x="199" y="139" font-size="11" fill="#C9D1D9" >Python</text><text x="327" y="139" font-size="10" fill="#A8B2C3" text-anchor="end">12%</text><circle cx="26" cy="169" r="4" fill="#A78BFA"/><text x="37" y="173" font-size="11" fill="#C9D1D9" >CSS</text><text x="165" y="173" font-size="10" fill="#A8B2C3" text-anchor="end">9%</text><circle cx="188" cy="169" r="4" fill="#64748B"/><text x="199" y="173" font-size="11" fill="#C9D1D9" >Otros</text><text x="327" y="173" font-size="10" fill="#A8B2C3" text-anchor="end">9%</text><text x="22" y="207" font-size="10" fill="#8B98AA" >Proporción por repositorio, no por líneas.</text></g></svg>
